<svg width="18" height="18" viewBox="0 0 18 18" fill="none" xmlns="http://www.w3.org/2000/svg">
<g filter="url(#filter0_d_28_4078)">
<path d="M7.56005 11.3867C7.4725 11.3868 7.38578 11.3695 7.3049 11.336C7.22401 11.3025 7.15055 11.2533 7.08872 11.1913L4.52872 8.63133C4.46505 8.56983 4.41426 8.49627 4.37932 8.41493C4.34438 8.3336 4.32599 8.24612 4.32522 8.1576C4.32445 8.06908 4.34132 7.98129 4.37484 7.89936C4.40836 7.81743 4.45786 7.74299 4.52046 7.6804C4.58305 7.6178 4.65749 7.5683 4.73942 7.53478C4.82135 7.50126 4.90914 7.48439 4.99766 7.48516C5.08617 7.48593 5.17365 7.50432 5.25499 7.53926C5.33633 7.5742 5.40989 7.62499 5.47139 7.68866L7.56005 9.77733L12.5287 4.80866C12.6545 4.68722 12.8229 4.62003 12.9977 4.62155C13.1725 4.62307 13.3397 4.69318 13.4633 4.81678C13.5869 4.94039 13.657 5.1076 13.6585 5.28239C13.66 5.45719 13.5928 5.62559 13.4714 5.75133L8.03139 11.1913C7.96956 11.2533 7.8961 11.3025 7.81521 11.336C7.73432 11.3695 7.64761 11.3868 7.56005 11.3867Z" fill="#171717"/>
</g>
<defs>
<filter id="filter0_d_28_4078" x="-3" y="0" width="24" height="24" filterUnits="userSpaceOnUse" color-interpolation-filters="sRGB">
<feFlood flood-opacity="0" result="BackgroundImageFix"/>
<feColorMatrix in="SourceAlpha" type="matrix" values="0 0 0 0 0 0 0 0 0 0 0 0 0 0 0 0 0 0 127 0" result="hardAlpha"/>
<feOffset dy="4"/>
<feGaussianBlur stdDeviation="2"/>
<feComposite in2="hardAlpha" operator="out"/>
<feColorMatrix type="matrix" values="0 0 0 0 0 0 0 0 0 0 0 0 0 0 0 0 0 0 0.25 0"/>
<feBlend mode="normal" in2="BackgroundImageFix" result="effect1_dropShadow_28_4078"/>
<feBlend mode="normal" in="SourceGraphic" in2="effect1_dropShadow_28_4078" result="shape"/>
</filter>
</defs>
</svg>
